<svg xmlns="http://www.w3.org/2000/svg" viewBox="0 0 500 500"><g id="freepik--background-simple--inject-79"><path d="M461.65,371.33c27.81-60.47,29.68-141,10.48-205.64a214.78,214.78,0,0,0-95.79-123.3c-49.3-29.3-108.06-38-160.95-19.53-13.92,4.87-27.47,9.32-40.59,17.32C121,72.94,131.4,153.68,112.53,181.76c-15.88,23.63-46.24,16.67-65.37,34.77C-4.49,265.39-4.62,388.89,55,427.5,118.19,468.46,392.77,521.11,461.65,371.33Z" style="fill:#FFC100"></path><path d="M461.65,371.33c27.81-60.47,29.68-141,10.48-205.64a214.78,214.78,0,0,0-95.79-123.3c-49.3-29.3-108.06-38-160.95-19.53-13.92,4.87-27.47,9.32-40.59,17.32C121,72.94,131.4,153.68,112.53,181.76c-15.88,23.63-46.24,16.67-65.37,34.77C-4.49,265.39-4.62,388.89,55,427.5,118.19,468.46,392.77,521.11,461.65,371.33Z" style="fill:#fff;opacity:0.8"></path></g><g id="freepik--Gifts--inject-79"><rect x="133.51" y="362.49" width="32.77" height="21.65" style="fill:#FFC100;stroke:#263238;stroke-linecap:round;stroke-linejoin:round"></rect><polygon points="147.75 388.07 129.7 374.94 119.3 389.07 128.33 395.64 147.75 388.07" style="fill:#fff;stroke:#263238;stroke-linecap:round;stroke-linejoin:round"></polygon><polygon points="171.18 373.99 153.13 387.13 172.56 394.69 181.59 388.13 171.18 373.99" style="fill:#fff;stroke:#263238;stroke-linecap:round;stroke-linejoin:round"></polygon><polygon points="162.98 381.01 137.45 381.01 143.83 396.35 156.6 396.35 162.98 381.01" style="fill:#fff;stroke:#263238;stroke-linecap:round;stroke-linejoin:round"></polygon><polygon points="147.75 357.72 129.7 370.85 119.3 356.72 128.33 350.15 147.75 357.72" style="fill:#FFC100;stroke:#263238;stroke-linecap:round;stroke-linejoin:round"></polygon><polygon points="172.09 372.32 154.04 359.19 173.47 351.62 182.5 358.19 172.09 372.32" style="fill:#FFC100;stroke:#263238;stroke-linecap:round;stroke-linejoin:round"></polygon><polygon points="162.98 364.56 137.45 364.56 143.83 349.21 156.6 349.21 162.98 364.56" style="fill:#FFC100;stroke:#263238;stroke-linecap:round;stroke-linejoin:round"></polygon><polygon points="137.98 363.49 137.98 382.07 116.89 377.43 116.89 368.14 137.98 363.49" style="fill:#FFC100;stroke:#263238;stroke-linecap:round;stroke-linejoin:round"></polygon><polygon points="161.83 363.49 161.83 382.07 182.92 377.43 182.92 368.14 161.83 363.49" style="fill:#FFC100;stroke:#263238;stroke-linecap:round;stroke-linejoin:round"></polygon><rect x="68.73" y="376.78" width="167.75" height="85.51" style="fill:#fff;stroke:#263238;stroke-linecap:round;stroke-linejoin:round"></rect><rect x="112.45" y="376.78" width="19.79" height="85.51" style="fill:#FFC100;stroke:#263238;stroke-linecap:round;stroke-linejoin:round"></rect><rect x="178.68" y="376.78" width="57.8" height="85.51" style="fill:#bfbfbf;stroke:#263238;stroke-linecap:round;stroke-linejoin:round"></rect><rect x="194.58" y="376.78" width="19.79" height="85.51" style="fill:#FFC100;stroke:#263238;stroke-linecap:round;stroke-linejoin:round"></rect><rect x="53.84" y="445.52" width="103.16" height="16.76" style="fill:#FFC100;stroke:#263238;stroke-linecap:round;stroke-linejoin:round"></rect><rect x="80.73" y="445.52" width="12.17" height="16.76" style="fill:#fff;stroke:#263238;stroke-linecap:round;stroke-linejoin:round"></rect><rect x="121.45" y="445.52" width="35.54" height="16.76" style="fill:#FFC100;stroke:#263238;stroke-linecap:round;stroke-linejoin:round"></rect><rect x="131.23" y="445.52" width="12.17" height="16.76" style="fill:#fff;stroke:#263238;stroke-linecap:round;stroke-linejoin:round"></rect><path d="M95.59,430.43S88.4,411.75,76.9,414.62,95.59,430.43,95.59,430.43Z" style="fill:none;stroke:#263238;stroke-linecap:round;stroke-linejoin:round"></path><path d="M95.59,430.43s8.62-24.43,20.84-16.52S95.59,430.43,95.59,430.43Z" style="fill:none;stroke:#263238;stroke-linecap:round;stroke-linejoin:round"></path><rect x="49.62" y="429" width="103.16" height="16.76" style="fill:#FFC100;stroke:#263238;stroke-linecap:round;stroke-linejoin:round"></rect><rect x="76.51" y="429" width="12.17" height="16.76" style="fill:#fff;stroke:#263238;stroke-linecap:round;stroke-linejoin:round"></rect><rect x="117.24" y="429" width="35.54" height="16.76" style="fill:#FFC100;stroke:#263238;stroke-linecap:round;stroke-linejoin:round"></rect><rect x="127.02" y="429" width="12.17" height="16.76" style="fill:#fff;stroke:#263238;stroke-linecap:round;stroke-linejoin:round"></rect><rect x="373.41" y="379.96" width="27.03" height="17.86" style="fill:#fff;stroke:#263238;stroke-linecap:round;stroke-linejoin:round"></rect><polygon points="385.16 401.07 370.27 390.23 361.69 401.89 369.13 407.31 385.16 401.07" style="fill:#fff;stroke:#263238;stroke-linecap:round;stroke-linejoin:round"></polygon><polygon points="404.49 389.45 389.59 400.29 405.62 406.53 413.07 401.11 404.49 389.45" style="fill:#fff;stroke:#263238;stroke-linecap:round;stroke-linejoin:round"></polygon><polygon points="397.72 395.24 376.66 395.24 381.93 407.9 392.46 407.9 397.72 395.24" style="fill:#fff;stroke:#263238;stroke-linecap:round;stroke-linejoin:round"></polygon><polygon points="385.16 376.03 370.27 386.86 361.69 375.2 369.13 369.78 385.16 376.03" style="fill:#fff;stroke:#263238;stroke-linecap:round;stroke-linejoin:round"></polygon><polygon points="405.24 388.08 390.35 377.24 406.37 371 413.82 376.42 405.24 388.08" style="fill:#fff;stroke:#263238;stroke-linecap:round;stroke-linejoin:round"></polygon><polygon points="397.72 381.67 376.66 381.67 381.93 369.01 392.46 369.01 397.72 381.67" style="fill:#fff;stroke:#263238;stroke-linecap:round;stroke-linejoin:round"></polygon><polygon points="377.1 380.79 377.1 396.12 359.7 392.29 359.7 384.62 377.1 380.79" style="fill:#fff;stroke:#263238;stroke-linecap:round;stroke-linejoin:round"></polygon><polygon points="396.77 380.79 396.77 396.12 414.17 392.29 414.17 384.62 396.77 380.79" style="fill:#fff;stroke:#263238;stroke-linecap:round;stroke-linejoin:round"></polygon><rect x="319.97" y="391.75" width="138.38" height="70.54" style="fill:#FFC100;stroke:#263238;stroke-linecap:round;stroke-linejoin:round"></rect><rect x="356.04" y="391.75" width="16.32" height="70.54" style="fill:#fff;stroke:#263238;stroke-linecap:round;stroke-linejoin:round"></rect><rect x="410.67" y="391.75" width="47.68" height="70.54" style="fill:#FFC100;stroke:#263238;stroke-linecap:round;stroke-linejoin:round"></rect><rect x="423.79" y="391.75" width="16.33" height="70.54" style="fill:#fff;stroke:#263238;stroke-linecap:round;stroke-linejoin:round"></rect></g><g id="freepik--Cake--inject-79"><path d="M291.2,459.56c-.18-1.47-3-2.57-7.28-4.58s-6-3.12-10.84-9.17S269.7,430,269.7,430l-11.19-.92-11.19.92s1.42,9.72-3.38,15.77S237.37,453,233.1,455s-7.1,3.11-7.28,4.58a11.8,11.8,0,0,0,0,2.75H291.2A11.8,11.8,0,0,0,291.2,459.56Z" style="fill:#fff;stroke:#263238;stroke-linecap:round;stroke-linejoin:round"></path><path d="M275.62,448.87c-.76-.86-1.59-1.86-2.54-3.06-3-3.73-3.55-8.85-3.57-12.23h-22c0,3.38-.61,8.5-3.57,12.23-.95,1.2-1.78,2.2-2.54,3.06Z" style="fill:#263238;stroke:#263238;stroke-linecap:round;stroke-linejoin:round"></path><path d="M225.82,459.56a11.8,11.8,0,0,0,0,2.75H291.2a11.8,11.8,0,0,0,0-2.75,1.54,1.54,0,0,0-.33-.73H226.15A1.54,1.54,0,0,0,225.82,459.56Z" style="fill:none;stroke:#263238;stroke-linecap:round;stroke-linejoin:round"></path><polygon points="282.56 409.25 233.58 409.25 229.26 404.09 286.88 404.09 282.56 409.25" style="fill:#263238;stroke:#263238;stroke-linecap:round;stroke-linejoin:round"></polygon><path d="M282.55,409.25l-22.81-.08H256.4l-22.82.08s5.95,13.12,22.82,14.69v.15c.57,0,1.12,0,1.67,0s1.1,0,1.67,0v-.15C276.61,422.37,282.55,409.25,282.55,409.25Z" style="fill:#263238;stroke:#263238;stroke-linecap:round;stroke-linejoin:round"></path><path d="M271.54,431.58l-12.55,0h-1.84l-12.55,0s3.27-6.65,12.55-7.45v-.08l.92,0,.92,0v.08C268.27,424.93,271.54,431.58,271.54,431.58Z" style="fill:#263238;stroke:#263238;stroke-linecap:round;stroke-linejoin:round"></path><rect x="132.03" y="393.7" width="252.09" height="5.56" style="fill:#fff;stroke:#263238;stroke-linecap:round;stroke-linejoin:round"></rect><polygon points="333.07 404.4 183.07 404.4 169.84 399.25 346.3 399.25 333.07 404.4" style="fill:#263238;stroke:#263238;stroke-linecap:round;stroke-linejoin:round"></polygon><path d="M242.72,120.88s-.12,4.07.51,4.58a8,8,0,0,0,4.33,1.4c1.47-.14,1.42.87,1.47-.14s-1.47-4.83-2.1-5.72S244.76,117.82,242.72,120.88Z" style="fill:#fff;stroke:#263238;stroke-linecap:round;stroke-linejoin:round"></path><path d="M240.81,75.42l2.3,20.63s-1.15,6.49-1.4,8.91.51,11.71.38,13.24-.26,3.44-.26,3.44a22.18,22.18,0,0,0,3.95,1.15c.89,0,3.18-1.4,3.18-1.4s3.31-28,3.44-28.4-.25-19.61-.25-19.61S245.14,76.69,240.81,75.42Z" style="fill:#263238;stroke:#263238;stroke-linecap:round;stroke-linejoin:round"></path><path d="M247.51,33.34s-6.93,5.14-8,6.4a8.85,8.85,0,0,0-2,4.83c0,1.47,3,15.22,3,15.22l-2,15.33s1.47,2.1,6.51,2.1,7.66-1.47,7.66-1.47,3.46-21,3.57-24.35,2.83-9.87,1.78-12.39-4.41-2.84-4.41-2.84S248.56,32.61,247.51,33.34Z" style="fill:#263238;stroke:#263238;stroke-linecap:round;stroke-linejoin:round"></path><path d="M253.7,38.17c0-.8-.06-1.49-.11-2.07-.76-.52-5.12-3.43-6.08-2.76l-1.16.87a6.43,6.43,0,0,0,.64,3.64c1,1.58,5.66,9.56,5.66,9.56A53.37,53.37,0,0,0,253.7,38.17Z" style="fill:#fff;stroke:#263238;stroke-linecap:round;stroke-linejoin:round"></path><polygon points="251.39 38.17 249.93 40.69 251.29 41.84 250.87 44.47 252.65 47.41 253.6 42.58 252.65 41 253.18 39.11 251.39 38.17" style="fill:#FFC100;stroke:#263238;stroke-linecap:round;stroke-linejoin:round"></polygon><path d="M246.46,30.19l.63,4.83a5,5,0,0,0,4.3,3.15,7.23,7.23,0,0,1,1.05-.74,4,4,0,0,0,1.26-1.26s-.1-7.24-2.2-7.45S246.57,28.93,246.46,30.19Z" style="fill:#fff;stroke:#263238;stroke-linecap:round;stroke-linejoin:round"></path><path d="M257.9,26.62l-.63,4.31a20,20,0,0,1-.52,4.72c-.53,1.47-.95,2.1-2.31,2.1a5.55,5.55,0,0,1-3.05-1.26l-.42-.32-.73-.84s-.74.53-1.26-.63.42-3.14-.1-3-.21-2.94-.21-2.94a8,8,0,0,1,2.83-2A44.84,44.84,0,0,1,257.9,26.62Z" style="fill:#fff;stroke:#263238;stroke-linecap:round;stroke-linejoin:round"></path><path d="M257.17,44.05s-5.25,8.6-5.25,11.12.63,3.47.73,4.73-2.52,6.4-3.56,11-.84,18.37-1.47,29.6-1.26,16.17-1.89,19.53-1.16,5.46-1.16,5.46,7.24,4.3,11.76,4.82,7.45-.21,8.4.11,1,4,1,4a10.47,10.47,0,0,0,3.46.42,5.39,5.39,0,0,0,2.62-.63l.53,2.52s1.26.1,4.2.21,4.83-.53,5.77-2a16.35,16.35,0,0,0,1.58-3.78s1.05.11.84-2.72a7.4,7.4,0,0,0-2.42-5,18.82,18.82,0,0,1-1.78-2.42s.21-.63-.53-2.2a15.53,15.53,0,0,0-3.15-3.68s-5.14-11.75-6.09-14.9-1.36-4.83-1.36-4.83-.53-7.14-1.57-17.22-4.41-14.9-4.41-14.9a19.84,19.84,0,0,1,.84-8c1.36-4.51,1.89-4.09,2.1-8S259.37,41.42,257.17,44.05Z" style="fill:#fff;stroke:#263238;stroke-linecap:round;stroke-linejoin:round"></path><path d="M252.76,80.09l-1.32-.57s-.07-2-1.08-2.71-1.63-.25-1.63.32v.94s-1.14-.44-1.58.19a1.18,1.18,0,0,0,.13,1.33s-.7.06-.63,1.13a1.16,1.16,0,0,0,.88,1.2s-.51,1.13-.13,1.57,1.07.07,1.07.07.38.75.95.63,1-1,1-1,.12.5.44.06a4.44,4.44,0,0,0,.44-.75l3-.45,2.71.63a1.27,1.27,0,0,0,.63-1.19c-.06-.82-.31-.89-.63-.89h-1.32l-2-.25Z" style="fill:#fff;stroke:#263238;stroke-linecap:round;stroke-linejoin:round"></path><path d="M251.44,79.52l-.93.89s.43.43.36.79a2.65,2.65,0,0,1-.36.8l.8.49,4.39,0,1.34.2s.79-.63.63-1.19a1.74,1.74,0,0,0-.63-.89l-2.85-.25Z" style="fill:#FFC100;stroke:#263238;stroke-linecap:round;stroke-linejoin:round"></path><path d="M258,46.46A8.67,8.67,0,0,0,257,51c0,2.93-.21,10.28-.21,10.28s-1.05,4.41-1.58,7.77-1.57,8.82-1.57,8.82-1.47,1.57-1.47,2a26.42,26.42,0,0,0-.21,2.84c.1.31.1,1.15.84.84l.73-.32s1.68.11,2.21-.73.31-4.1.31-4.1,3.47-12.49,4-14.06a20.15,20.15,0,0,0,.74-3.68l1.57-13.12s-.94-1.57-2.1-1.47S258.85,45.73,258,46.46Z" style="fill:#fff;stroke:#263238;stroke-linecap:round;stroke-linejoin:round"></path><path d="M256.12,36.59s-1,2.73-1.37,3.68-1.15,3.36-1.15,3.36l1.26,2.2,3.25-2.41a11,11,0,0,0,0-4.41C257.59,37,256.75,35.33,256.12,36.59Z" style="fill:#fff;stroke:#263238;stroke-linecap:round;stroke-linejoin:round"></path><path d="M251.5,28.72a3.13,3.13,0,0,1-.21,2.1,2.33,2.33,0,0,1-1.37,1.37v.94s-.52-2.1-1-1.47a3.1,3.1,0,0,0-.42,1.89s-.11.73-1-.21-.94-1.15-2.1-3.46-2.31-3.15.21-5.88,5.14-3.26,7.35-2.1a12.88,12.88,0,0,1,3.88,3.57s1.37-.11,1,1.15a3.13,3.13,0,0,1-3.46,2.63A11.16,11.16,0,0,1,251.5,28.72Z" style="fill:#263238;stroke:#263238;stroke-linecap:round;stroke-linejoin:round"></path><path d="M240.48,41.42a3.16,3.16,0,0,0-2.52,2c-.74,1.68-.21,4,.42,5.35s4.41,8.19,5,9.24,2,2.62,3.36,2.1,3.56-2.63,5.14-4.94S256.43,48,256.43,48l-2.83-5.46-6.51,8.08s-2.31-5.35-3-6.09" style="fill:#263238;stroke:#263238;stroke-linecap:round;stroke-linejoin:round"></path><path d="M261,116.16a21.41,21.41,0,0,0,1.27,2.22c5.81,8.81,8.06,9.28,8.06,9.28" style="fill:none;stroke:#263238;stroke-linecap:round;stroke-linejoin:round"></path><path d="M252.13,85.31s3.34,18.83,8.11,29.33" style="fill:none;stroke:#263238;stroke-linecap:round;stroke-linejoin:round"></path><path d="M251.41,113.23c.26,1.23.53,2.34.81,3.28,2.15,7.12,4.31,12.27,5.15,13.21" style="fill:none;stroke:#263238;stroke-linecap:round;stroke-linejoin:round"></path><path d="M248.75,91.87s.87,11.59,2.35,19.75" style="fill:none;stroke:#263238;stroke-linecap:round;stroke-linejoin:round"></path><path d="M251.28,115.48A69.65,69.65,0,0,1,250,123c-.66,2.24-1.4,3.27-.94,3.74" style="fill:none;stroke:#263238;stroke-linecap:round;stroke-linejoin:round"></path><path d="M266.65,130.19s5.15-.28,6,.09,1,3.09,1,3.09l-1.81.85" style="fill:none;stroke:#263238;stroke-linecap:round;stroke-linejoin:round"></path><path d="M279.38,127.56a17.72,17.72,0,0,0,2.31,2" style="fill:none;stroke:#263238;stroke-linecap:round;stroke-linejoin:round"></path><path d="M269.85,110.69s2.83,9,8.07,15.27" style="fill:none;stroke:#263238;stroke-linecap:round;stroke-linejoin:round"></path><path d="M270.74,104.32s2.93,10.57,8.28,16.05" style="fill:none;stroke:#263238;stroke-linecap:round;stroke-linejoin:round"></path><path d="M268.82,34.39s.84-3.25-.21-4.51-3.67-3.26-5.67-2.94a2.85,2.85,0,0,0-2.41,1.89s-3.15.84-4,1.89-.32,2-.42,3.56-1.26,2.1-.63,3.57,2,2.31,1.89,3-1.89,2-1.58,3.67,1.47,2.1,1.68,3.15a2.77,2.77,0,0,1-.21,1.79s1.47,1.78,2.42,1.15a4.32,4.32,0,0,0,1.36-2.1,1.47,1.47,0,0,1,.95,2.31l-.95,1.89s2.84,2.62,5.15,1.15,1.15-2.2,2.3-2.51A4.09,4.09,0,0,0,271.44,48c.11-1.79-1.36-3.68-1.57-5.15s.52-1.78.52-4.2A7.49,7.49,0,0,0,268.82,34.39Z" style="fill:#263238;stroke:#263238;stroke-linecap:round;stroke-linejoin:round"></path><path d="M257.38,34.22a.59.59,0,1,1-1.17,0,.59.59,0,1,1,1.17,0Z" style="fill:#fff"></path><circle cx="258.43" cy="34.93" r="0.59" style="fill:#fff"></circle><circle cx="260.21" cy="35.47" r="0.59" style="fill:#fff"></circle><circle cx="262.02" cy="35.83" r="0.59" style="fill:#fff"></circle><circle cx="263.87" cy="35.75" r="0.59" style="fill:#fff"></circle><circle cx="265.42" cy="35.58" r="0.59" style="fill:#fff"></circle><circle cx="267.01" cy="35.22" r="0.59" style="fill:#fff"></circle><path d="M268.83,34.52a.59.59,0,1,1-1.18,0,.59.59,0,0,1,1.18,0Z" style="fill:#fff"></path><path d="M240.91,60.77s2.13,3.36,4.26,2.35,6.38-6.94,6.38-6.94" style="fill:none;stroke:gray;stroke-linecap:round;stroke-linejoin:round"></path><polyline points="243.71 45.54 247.09 50.66 250.77 46.1" style="fill:none;stroke:gray;stroke-linecap:round;stroke-linejoin:round"></polyline><path d="M228.59,123.55H284a6.08,6.08,0,0,1,6.08,6.08V189.4a0,0,0,0,1,0,0H222.51a0,0,0,0,1,0,0V129.63A6.08,6.08,0,0,1,228.59,123.55Z" style="fill:#fff;stroke:#263238;stroke-linecap:round;stroke-linejoin:round"></path><rect x="222.51" y="129.32" width="67.57" height="6.2" style="fill:#FFC100;stroke:#263238;stroke-linecap:round;stroke-linejoin:round"></rect><path d="M211.4,189.4h89.79a6.23,6.23,0,0,1,6.23,6.23v59.62a0,0,0,0,1,0,0H205.17a0,0,0,0,1,0,0V195.63A6.23,6.23,0,0,1,211.4,189.4Z" style="fill:#fff;stroke:#263238;stroke-linecap:round;stroke-linejoin:round"></path><rect x="205.17" y="198.43" width="102.25" height="6.2" style="fill:#FFC100;stroke:#263238;stroke-linecap:round;stroke-linejoin:round"></rect><path d="M186.1,255.25H326.49a5.08,5.08,0,0,1,5.08,5.08V321.1a0,0,0,0,1,0,0H181a0,0,0,0,1,0,0V260.32A5.08,5.08,0,0,1,186.1,255.25Z" style="fill:#fff;stroke:#263238;stroke-linecap:round;stroke-linejoin:round"></path><rect x="181.02" y="264" width="150.54" height="6.2" style="fill:#FFC100;stroke:#263238;stroke-linecap:round;stroke-linejoin:round"></rect><path d="M169.68,321.1H342.91a5.38,5.38,0,0,1,5.38,5.38v67.37a0,0,0,0,1,0,0h-184a0,0,0,0,1,0,0V326.48A5.38,5.38,0,0,1,169.68,321.1Z" style="fill:#fff;stroke:#263238;stroke-linecap:round;stroke-linejoin:round"></path><rect x="164.3" y="331.26" width="183.99" height="6.72" style="fill:#FFC100;stroke:#263238;stroke-linecap:round;stroke-linejoin:round"></rect><path d="M308.82,169.59s1.25-5.54-8.05-8.94-13.24.36-13.59,2.32,2,4.48,5.18,6.62S305.06,173.89,308.82,169.59Z" style="fill:#fff;stroke:#263238;stroke-linecap:round;stroke-linejoin:round"></path><path d="M295.05,167.09s-5.91-8.23-12.17-7.16-7.15,11.45-6.26,14.67a4.91,4.91,0,0,0,6.44,3.22C285,176.93,295.05,167.09,295.05,167.09Z" style="fill:#fff;stroke:#263238;stroke-linecap:round;stroke-linejoin:round"></path><path d="M309.71,185.87s5.55.36,8.05-4.65S316,170.67,312,168.34s-5.72-.18-8.59.18l-2.86.36S309.18,180.33,309.71,185.87Z" style="fill:#fff;stroke:#263238;stroke-linecap:round;stroke-linejoin:round"></path><path d="M291.47,182.47s1.25,8.77,9.12,12.52,11.27-3.4,11.81-7-3-8.05-3-8.05-6.26,4.47-9.84,4.29A33.94,33.94,0,0,1,291.47,182.47Z" style="fill:#fff;stroke:#263238;stroke-linecap:round;stroke-linejoin:round"></path><path d="M282.53,171.38s-4.66,8.41-1.26,14.67,12.52,6.62,14.49,5.9a4.29,4.29,0,0,0,3.22-4.29c.18-2.51-11.8-13.77-13.06-15S284.49,170.49,282.53,171.38Z" style="fill:#fff;stroke:#263238;stroke-linecap:round;stroke-linejoin:round"></path><path d="M289.32,180.68s6.44,7.34,11.81,7.69,10.37-7.15,10-11.62-5.73-8.05-7.7-8.23a26.16,26.16,0,0,1-3.93-.72s3.22,5,1.79,8.77S289.32,180.68,289.32,180.68Z" style="fill:#fff;stroke:#263238;stroke-linecap:round;stroke-linejoin:round"></path><path d="M295.05,167.09s-2.87-3.76-7.87-1.07-5.91,9.3-2.69,12.52,5.19,3.75,7,3.93,4.29.72,4.29.72-6.44-8.77-3.93-11.27A13.23,13.23,0,0,0,295.05,167.09Z" style="fill:#fff;stroke:#263238;stroke-linecap:round;stroke-linejoin:round"></path><path d="M301,183.37a12.12,12.12,0,0,0,5.37-3.94c1.78-2.68-2.33-10.2-6.8-11.63s-10.56.9-11.09,5.37,6.62,10,9.12,10.73S301,183.37,301,183.37Z" style="fill:#fff;stroke:#263238;stroke-linecap:round;stroke-linejoin:round"></path><path d="M301,183.37a7.55,7.55,0,0,1-5.19-2.87c-2.5-2.86-3.58-4.29-1.25-4.65s6.8,2.51,5.55,2.87a6.9,6.9,0,0,1-3.4-.54" style="fill:none;stroke:#263238;stroke-linecap:round;stroke-linejoin:round"></path><path d="M189.27,308.89s-1.25-5.55,8-8.94,13.24.35,13.6,2.32-2,4.47-5.19,6.62S193,313.18,189.27,308.89Z" style="fill:#fff;stroke:#263238;stroke-linecap:round;stroke-linejoin:round"></path><path d="M203.05,306.39s5.9-8.23,12.16-7.16,7.16,11.45,6.26,14.67a4.91,4.91,0,0,1-6.44,3.22C213.06,316.22,203.05,306.39,203.05,306.39Z" style="fill:#fff;stroke:#263238;stroke-linecap:round;stroke-linejoin:round"></path><path d="M188.38,325.17s-5.55.35-8-4.65,1.79-10.56,5.72-12.88,5.73-.18,8.59.18l2.86.35S188.92,319.62,188.38,325.17Z" style="fill:#fff;stroke:#263238;stroke-linecap:round;stroke-linejoin:round"></path><path d="M206.62,321.77s-1.25,8.76-9.12,12.52-11.27-3.4-11.8-7,3-8.05,3-8.05,6.26,4.48,9.84,4.3A33.94,33.94,0,0,0,206.62,321.77Z" style="fill:#fff;stroke:#263238;stroke-linecap:round;stroke-linejoin:round"></path><path d="M215.57,310.68s4.65,8.41,1.25,14.67-12.52,6.61-14.49,5.9a4.3,4.3,0,0,1-3.22-4.29c-.18-2.51,11.81-13.78,13.06-15S213.6,309.78,215.57,310.68Z" style="fill:#fff;stroke:#263238;stroke-linecap:round;stroke-linejoin:round"></path><path d="M208.77,320s-6.44,7.33-11.8,7.69-10.38-7.15-10-11.63,5.72-8,7.69-8.22a26.13,26.13,0,0,0,3.94-.72s-3.22,5-1.79,8.77S208.77,320,208.77,320Z" style="fill:#fff;stroke:#263238;stroke-linecap:round;stroke-linejoin:round"></path><path d="M203.05,306.39s2.86-3.76,7.87-1.08,5.9,9.3,2.68,12.52-5.19,3.76-7,3.94-4.29.71-4.29.71,6.44-8.76,3.94-11.27A13,13,0,0,1,203.05,306.39Z" style="fill:#fff;stroke:#263238;stroke-linecap:round;stroke-linejoin:round"></path><path d="M197.14,322.66a12.05,12.05,0,0,1-5.36-3.93c-1.79-2.69,2.32-10.2,6.8-11.63s10.55.9,11.09,5.37-6.62,10-9.13,10.73S197.14,322.66,197.14,322.66Z" style="fill:#fff;stroke:#263238;stroke-linecap:round;stroke-linejoin:round"></path><path d="M197.14,322.66a7.54,7.54,0,0,0,5.19-2.86c2.51-2.86,3.58-4.29,1.25-4.65s-6.79,2.5-5.54,2.86,3.4-.53,3.4-.53" style="fill:none;stroke:#263238;stroke-linecap:round;stroke-linejoin:round"></path><path d="M260,254s6.26,9,14.66,6.08,5.19-14.13,3.22-16.27-11.26-2-15.56.89S260,254,260,254Z" style="fill:#fff;stroke:#263238;stroke-linecap:round;stroke-linejoin:round"></path><path d="M249.43,227.73s-4.29-5-8.94-4.3S233,229,232.8,234.17s3.58,6.79,5.72,7.69,11.63-3.94,13.24-7.69S249.43,227.73,249.43,227.73Z" style="fill:#fff;stroke:#263238;stroke-linecap:round;stroke-linejoin:round"></path><path d="M242.28,237.39s-6.08-1.08-9.48,6.08,6.08,12.34,11.09,12.16,5.72-8.41,5.54-11.27S244.6,236.67,242.28,237.39Z" style="fill:#fff;stroke:#263238;stroke-linecap:round;stroke-linejoin:round"></path><path d="M244.78,227.19A13,13,0,0,1,258.2,217c11.45.18,9.3,12.88,9.3,12.88s9.48-4.65,14.31,4.12-6.26,14.31-12.16,11.62l-2.33-4.29s-6.44,12.52-11.09,17.17a9.75,9.75,0,0,1-15.92-4.11c-2.32-7.16,7-15.74,7-15.74Z" style="fill:#fff;stroke:#263238;stroke-linecap:round;stroke-linejoin:round"></path><path d="M256.77,231.48a13.91,13.91,0,0,0-9.84-6.26c-6.8-.89-10.55,5.55-9.48,11.81s7.87,8.94,10.55,8.23,1.43-.9,1.43-.9-3.57,7-1.07,9.3,11.27,5.73,17.17,2.51-.18-9.48-.18-9.48,3.22,1.79,6.8-3.58,3-10.55-3.76-14.31S256.77,231.48,256.77,231.48Z" style="fill:#fff;stroke:#263238;stroke-linecap:round;stroke-linejoin:round"></path><path d="M266.43,243.65s1.43-8.41-3.94-10.56-11.27-2-14.31,2.69-2.68,9.66.72,12,8.76,3.4,12.7,2S266.43,243.65,266.43,243.65Z" style="fill:#fff;stroke:#263238;stroke-linecap:round;stroke-linejoin:round"></path><path d="M266.43,243.65s-3.4-3.22-5.91-3.76-4.47,1.61-4.47,1.61.18,2.33,1.79,1.79.72-1.43.72-1.43" style="fill:none;stroke:#263238;stroke-linecap:round;stroke-linejoin:round"></path><path d="M240.51,291.76s-4.33-5.22-7.39-4.86-4.69,1.8-6,5.58-.54,7.21,2.7,9.19,9.19-.36,11-3.6A6.27,6.27,0,0,0,240.51,291.76Z" style="fill:#FFC100;stroke:#263238;stroke-linecap:round;stroke-linejoin:round"></path><path d="M235.48,294s-2-2.93-1.12-4.14a1.57,1.57,0,0,0-2.07-2.24c-1.72.69-4.74,2.67-4,4s3.44,1.12,3.1,2.33-4.91,2.67-4.22,4.48,3,4,4,3.27,2.15-6,2.84-4.74-.69,2.59,1.38,3.36,2.75.35,3.79-.51a6,6,0,0,0,1.55-4.65c-.35-1.21-1.29-1.64-2.59-1.12S235.74,294.51,235.48,294Z" style="fill:#FFC100;stroke:#263238;stroke-linecap:round;stroke-linejoin:round"></path><path d="M230.05,297.87s-1.64.26-1.12,1.12.6,1.29,2.41-.86,1.81-4.31,2.76-3.62,1,2.76,1.72,3.62,2.07,1.55,2.59,0,.17-1.55-1.3-2.32-3.53-2.42-4-3.54.6-2.93-.34-3.44-4-.6-2.76,1.46,3,2,2.58,3.71S230.48,297.87,230.05,297.87Z" style="fill:#FFC100;stroke:#263238;stroke-linecap:round;stroke-linejoin:round"></path><path d="M214.83,345.18s-4.32-5.22-7.39-4.86-4.68,1.8-5.94,5.58-.54,7.21,2.7,9.19,9.19-.36,11-3.6A6.24,6.24,0,0,0,214.83,345.18Z" style="fill:#FFC100;stroke:#263238;stroke-linecap:round;stroke-linejoin:round"></path><path d="M209.8,347.41s-2-2.93-1.12-4.13a1.56,1.56,0,0,0-2.06-2.24c-1.73.69-4.74,2.67-4,4s3.44,1.12,3.1,2.33-4.91,2.67-4.22,4.48,3,4,4,3.27,2.16-6,2.85-4.74-.69,2.59,1.37,3.36,2.76.35,3.79-.52a5.87,5.87,0,0,0,1.55-4.65c-.34-1.2-1.29-1.63-2.58-1.12S210.06,347.93,209.8,347.41Z" style="fill:#FFC100;stroke:#263238;stroke-linecap:round;stroke-linejoin:round"></path><path d="M204.38,351.29s-1.64.26-1.12,1.12.6,1.29,2.41-.86,1.81-4.31,2.76-3.62.94,2.76,1.72,3.62,2.07,1.55,2.58,0,.18-1.55-1.29-2.33-3.53-2.41-4-3.53.6-2.93-.35-3.44-4-.61-2.75,1.46,3,2,2.58,3.7S204.81,351.29,204.38,351.29Z" style="fill:#FFC100;stroke:#263238;stroke-linecap:round;stroke-linejoin:round"></path><path d="M193.74,348.8s-4.33-5.22-7.39-4.86-4.69,1.8-5.95,5.58-.54,7.21,2.71,9.19,9.19-.36,11-3.6A6.27,6.27,0,0,0,193.74,348.8Z" style="fill:#FFC100;stroke:#263238;stroke-linecap:round;stroke-linejoin:round"></path><path d="M188.71,351s-2-2.93-1.12-4.14a1.57,1.57,0,0,0-2.07-2.24c-1.72.69-4.73,2.67-4,4s3.45,1.12,3.1,2.33-4.91,2.67-4.22,4.48,3,4,4.05,3.27,2.15-6,2.84-4.73-.69,2.58,1.38,3.35,2.76.35,3.79-.51a6,6,0,0,0,1.55-4.65c-.34-1.21-1.29-1.64-2.58-1.12S189,351.55,188.71,351Z" style="fill:#FFC100;stroke:#263238;stroke-linecap:round;stroke-linejoin:round"></path><path d="M183.28,354.91s-1.63.26-1.12,1.12.61,1.29,2.42-.86,1.8-4.31,2.75-3.62.95,2.76,1.72,3.62,2.07,1.55,2.59,0,.17-1.55-1.29-2.32-3.54-2.42-4-3.54.61-2.92-.34-3.44-4-.6-2.76,1.46,3,2,2.59,3.71S183.71,354.91,183.28,354.91Z" style="fill:#FFC100;stroke:#263238;stroke-linecap:round;stroke-linejoin:round"></path><path d="M184,368s-4.32-5.23-7.39-4.87-4.68,1.8-5.94,5.59-.54,7.21,2.7,9.19,9.19-.36,11-3.61A6.25,6.25,0,0,0,184,368Z" style="fill:#fff;stroke:#263238;stroke-linecap:round;stroke-linejoin:round"></path><path d="M179,370.21s-2-2.93-1.12-4.13a1.57,1.57,0,0,0-2.07-2.24c-1.72.69-4.73,2.67-4,4s3.45,1.12,3.1,2.32-4.91,2.67-4.22,4.48,3,4,4,3.28,2.15-6,2.84-4.74-.69,2.58,1.38,3.36,2.76.34,3.79-.52a5.87,5.87,0,0,0,1.55-4.65c-.34-1.21-1.29-1.64-2.58-1.12S179.21,370.73,179,370.21Z" style="fill:#fff;stroke:#263238;stroke-linecap:round;stroke-linejoin:round"></path><path d="M173.53,374.09s-1.64.25-1.12,1.12.6,1.29,2.41-.87,1.81-4.3,2.75-3.61,1,2.75,1.73,3.61,2.06,1.56,2.58,0,.17-1.55-1.29-2.32-3.53-2.41-4-3.53.6-2.93-.35-3.45-4-.6-2.75,1.47,3,2,2.58,3.7S174,374.09,173.53,374.09Z" style="fill:#fff;stroke:#263238;stroke-linecap:round;stroke-linejoin:round"></path><path d="M186.05,328.65s-4.32-5.23-7.39-4.87-4.68,1.81-5.94,5.59-.54,7.21,2.7,9.19,9.19-.36,11-3.6A6.27,6.27,0,0,0,186.05,328.65Z" style="fill:#FFC100;stroke:#263238;stroke-linecap:round;stroke-linejoin:round"></path><path d="M181,330.88s-2-2.93-1.12-4.13a1.57,1.57,0,0,0-2.07-2.24c-1.72.69-4.73,2.67-4,4s3.45,1.12,3.1,2.33-4.91,2.67-4.22,4.48,3,4,4.05,3.27,2.15-6,2.84-4.74-.69,2.59,1.38,3.36,2.76.35,3.79-.52a5.87,5.87,0,0,0,1.55-4.65c-.34-1.2-1.29-1.63-2.58-1.12S181.28,331.4,181,330.88Z" style="fill:#FFC100;stroke:#263238;stroke-linecap:round;stroke-linejoin:round"></path><path d="M175.6,334.76s-1.64.26-1.12,1.12.6,1.29,2.41-.86,1.81-4.31,2.75-3.62,1,2.76,1.73,3.62,2.06,1.55,2.58,0,.17-1.55-1.29-2.33-3.53-2.41-4-3.53.6-2.93-.35-3.45-4-.6-2.75,1.47,3,2,2.58,3.7S176,334.76,175.6,334.76Z" style="fill:#FFC100;stroke:#263238;stroke-linecap:round;stroke-linejoin:round"></path><path d="M246.08,318.89s-4.33-5.22-7.39-4.86-4.69,1.8-5.95,5.58-.54,7.21,2.7,9.19,9.19-.36,11-3.6A6.27,6.27,0,0,0,246.08,318.89Z" style="fill:#fff;stroke:#263238;stroke-linecap:round;stroke-linejoin:round"></path><path d="M241.05,321.13s-2-2.93-1.12-4.14a1.57,1.57,0,0,0-2.07-2.24c-1.72.69-4.74,2.67-4,4s3.44,1.12,3.1,2.33-4.91,2.67-4.22,4.48,3,4,4.05,3.27,2.15-6,2.84-4.74-.69,2.59,1.38,3.36,2.75.35,3.79-.51a6,6,0,0,0,1.55-4.66c-.35-1.2-1.29-1.63-2.59-1.11S241.31,321.64,241.05,321.13Z" style="fill:#fff;stroke:#263238;stroke-linecap:round;stroke-linejoin:round"></path><path d="M235.62,325s-1.64.26-1.12,1.12.6,1.29,2.41-.86,1.81-4.31,2.76-3.62,1,2.76,1.72,3.62,2.07,1.55,2.59,0,.17-1.55-1.3-2.33-3.53-2.41-4-3.53.6-2.93-.34-3.44-4-.61-2.76,1.46,3,2,2.59,3.71S236.05,325,235.62,325Z" style="fill:#fff;stroke:#263238;stroke-linecap:round;stroke-linejoin:round"></path><path d="M270.39,271.11s-4.32-5.23-7.39-4.87-4.68,1.8-5.94,5.59-.54,7.21,2.7,9.19,9.19-.36,11-3.61A6.25,6.25,0,0,0,270.39,271.11Z" style="fill:#FFC100;stroke:#263238;stroke-linecap:round;stroke-linejoin:round"></path><path d="M265.36,273.34s-2-2.93-1.12-4.13a1.56,1.56,0,0,0-2.06-2.24c-1.73.69-4.74,2.67-4,4s3.45,1.12,3.1,2.32-4.91,2.67-4.22,4.48,3,4,4.05,3.28,2.16-6,2.84-4.74-.68,2.58,1.38,3.36,2.76.34,3.79-.52a5.87,5.87,0,0,0,1.55-4.65c-.34-1.21-1.29-1.64-2.58-1.12S265.62,273.86,265.36,273.34Z" style="fill:#FFC100;stroke:#263238;stroke-linecap:round;stroke-linejoin:round"></path><path d="M259.94,277.22s-1.64.25-1.12,1.12.6,1.29,2.41-.87,1.81-4.3,2.75-3.61.95,2.75,1.73,3.61,2.06,1.56,2.58,0,.17-1.55-1.29-2.32-3.53-2.41-4-3.53.6-2.93-.35-3.45-4-.6-2.75,1.47,3,2,2.58,3.7S260.37,277.22,259.94,277.22Z" style="fill:#FFC100;stroke:#263238;stroke-linecap:round;stroke-linejoin:round"></path><path d="M246.09,263.76s-4.32-5.23-7.39-4.87-4.68,1.8-5.94,5.59-.55,7.21,2.7,9.19,9.19-.36,11-3.6A6.27,6.27,0,0,0,246.09,263.76Z" style="fill:#FFC100;stroke:#263238;stroke-linecap:round;stroke-linejoin:round"></path><path d="M241.06,266s-2-2.93-1.12-4.13a1.57,1.57,0,0,0-2.07-2.24c-1.72.69-4.73,2.67-4,4s3.45,1.12,3.1,2.32-4.91,2.68-4.22,4.48,3,4,4.05,3.28,2.15-6,2.84-4.74-.69,2.58,1.38,3.36,2.76.34,3.79-.52a5.87,5.87,0,0,0,1.55-4.65c-.34-1.21-1.29-1.64-2.58-1.12S241.32,266.51,241.06,266Z" style="fill:#FFC100;stroke:#263238;stroke-linecap:round;stroke-linejoin:round"></path><path d="M235.64,269.87s-1.64.26-1.12,1.12.6,1.29,2.41-.86,1.81-4.31,2.75-3.62.95,2.75,1.73,3.62,2.06,1.55,2.58,0,.17-1.55-1.29-2.33-3.53-2.41-4-3.53.6-2.93-.35-3.45-4-.6-2.75,1.47,3,2,2.58,3.7S236.07,269.87,235.64,269.87Z" style="fill:#FFC100;stroke:#263238;stroke-linecap:round;stroke-linejoin:round"></path><path d="M219.16,269.77s-4.32-5.22-7.39-4.86-4.68,1.8-5.94,5.58-.55,7.21,2.7,9.19,9.19-.36,11-3.6A6.27,6.27,0,0,0,219.16,269.77Z" style="fill:#FFC100;stroke:#263238;stroke-linecap:round;stroke-linejoin:round"></path><path d="M214.13,272s-2-2.93-1.12-4.14a1.57,1.57,0,0,0-2.07-2.24c-1.72.69-4.73,2.67-4,4s3.45,1.12,3.1,2.33-4.91,2.67-4.22,4.48,3,4,4,3.27,2.15-6,2.84-4.74-.69,2.59,1.38,3.36,2.76.35,3.79-.51a5.92,5.92,0,0,0,1.55-4.65c-.34-1.21-1.29-1.64-2.58-1.12S214.39,272.52,214.13,272Z" style="fill:#FFC100;stroke:#263238;stroke-linecap:round;stroke-linejoin:round"></path><path d="M208.7,275.88s-1.63.26-1.12,1.12.61,1.29,2.42-.86,1.81-4.31,2.75-3.62.95,2.76,1.73,3.62,2.06,1.55,2.58,0,.17-1.55-1.29-2.32-3.53-2.42-4-3.54.6-2.93-.35-3.44-4-.6-2.76,1.46,3,2,2.59,3.71S209.14,275.88,208.7,275.88Z" style="fill:#FFC100;stroke:#263238;stroke-linecap:round;stroke-linejoin:round"></path><path d="M296.18,215.22s-4.32-5.22-7.39-4.86-4.68,1.8-5.94,5.59-.54,7.2,2.7,9.19,9.19-.36,11-3.61A6.27,6.27,0,0,0,296.18,215.22Z" style="fill:#FFC100;stroke:#263238;stroke-linecap:round;stroke-linejoin:round"></path><path d="M291.15,217.46s-2-2.93-1.12-4.14a1.56,1.56,0,0,0-2.06-2.24c-1.73.69-4.74,2.67-4,4s3.45,1.12,3.1,2.32-4.9,2.67-4.22,4.48,3,4,4.05,3.27,2.16-6,2.85-4.73-.69,2.58,1.37,3.36,2.76.34,3.79-.52a5.88,5.88,0,0,0,1.55-4.65c-.34-1.21-1.29-1.64-2.58-1.12S291.41,218,291.15,217.46Z" style="fill:#FFC100;stroke:#263238;stroke-linecap:round;stroke-linejoin:round"></path><path d="M285.73,221.33s-1.64.26-1.12,1.12.6,1.3,2.41-.86,1.81-4.3,2.76-3.62.94,2.76,1.72,3.62,2.07,1.55,2.58,0,.17-1.55-1.29-2.32-3.53-2.42-4-3.54.6-2.92-.35-3.44-4-.6-2.75,1.46,3,2,2.58,3.71S286.16,221.33,285.73,221.33Z" style="fill:#FFC100;stroke:#263238;stroke-linecap:round;stroke-linejoin:round"></path><path d="M288.06,140.29s-4.32-5.22-7.38-4.86-4.69,1.8-5.95,5.58-.54,7.21,2.7,9.19,9.19-.36,11-3.6A6.26,6.26,0,0,0,288.06,140.29Z" style="fill:#FFC100;stroke:#263238;stroke-linecap:round;stroke-linejoin:round"></path><path d="M283,142.53s-2-2.93-1.12-4.14a1.57,1.57,0,0,0-2.07-2.24c-1.72.69-4.74,2.67-4,4s3.44,1.12,3.1,2.33-4.91,2.67-4.22,4.48,3,4,4.05,3.27,2.15-6,2.84-4.74S281,148,283,148.81s2.75.35,3.79-.51a6,6,0,0,0,1.55-4.65,1.72,1.72,0,0,0-2.59-1.12C284.5,143,283.29,143,283,142.53Z" style="fill:#FFC100;stroke:#263238;stroke-linecap:round;stroke-linejoin:round"></path><path d="M277.61,146.4s-1.64.26-1.12,1.12.6,1.29,2.41-.86,1.81-4.31,2.76-3.62.95,2.76,1.72,3.62,2.07,1.55,2.58,0,.18-1.55-1.29-2.33-3.53-2.41-4-3.53.6-2.93-.34-3.44-4-.61-2.76,1.46,3,2,2.58,3.71S278,146.4,277.61,146.4Z" style="fill:#FFC100;stroke:#263238;stroke-linecap:round;stroke-linejoin:round"></path><path d="M284.62,124s-4.33-5.22-7.39-4.86-4.69,1.8-6,5.58-.54,7.21,2.71,9.19,9.19-.36,11-3.6A6.27,6.27,0,0,0,284.62,124Z" style="fill:#FFC100;stroke:#263238;stroke-linecap:round;stroke-linejoin:round"></path><path d="M279.59,126.23s-2-2.92-1.12-4.13a1.57,1.57,0,0,0-2.07-2.24c-1.72.69-4.74,2.67-4,4s3.44,1.12,3.1,2.33-4.91,2.67-4.22,4.48,3,4,4.05,3.27,2.15-6,2.84-4.74-.69,2.59,1.38,3.36,2.75.35,3.79-.51a6,6,0,0,0,1.55-4.66c-.35-1.2-1.29-1.63-2.59-1.12S279.85,126.75,279.59,126.23Z" style="fill:#FFC100;stroke:#263238;stroke-linecap:round;stroke-linejoin:round"></path><path d="M274.16,130.11s-1.64.26-1.12,1.12.6,1.29,2.41-.86,1.81-4.31,2.76-3.62,1,2.76,1.72,3.62,2.07,1.55,2.59,0,.17-1.55-1.3-2.33-3.53-2.41-4-3.53.61-2.93-.34-3.44-4-.61-2.76,1.46,3,2,2.59,3.7S274.59,130.11,274.16,130.11Z" style="fill:#FFC100;stroke:#263238;stroke-linecap:round;stroke-linejoin:round"></path><path d="M266.56,199.49s-4.33-5.22-7.39-4.86-4.69,1.8-6,5.58-.54,7.21,2.71,9.19,9.19-.36,11-3.6A6.27,6.27,0,0,0,266.56,199.49Z" style="fill:#FFC100;stroke:#263238;stroke-linecap:round;stroke-linejoin:round"></path><path d="M261.53,201.73s-2-2.93-1.12-4.14a1.57,1.57,0,0,0-2.07-2.24c-1.72.69-4.73,2.67-4,4s3.45,1.12,3.1,2.33-4.91,2.67-4.22,4.48,3,4,4.05,3.27,2.15-6,2.84-4.74-.69,2.59,1.38,3.36,2.76.35,3.79-.51a6,6,0,0,0,1.55-4.65c-.34-1.21-1.29-1.64-2.58-1.12S261.79,202.24,261.53,201.73Z" style="fill:#FFC100;stroke:#263238;stroke-linecap:round;stroke-linejoin:round"></path><path d="M256.1,205.6s-1.63.26-1.12,1.12.61,1.29,2.42-.86,1.8-4.31,2.75-3.62,1,2.76,1.72,3.62,2.07,1.55,2.59,0,.17-1.55-1.29-2.33-3.54-2.41-4-3.53.61-2.93-.34-3.44-4-.61-2.76,1.46,3,2,2.59,3.71S256.53,205.6,256.1,205.6Z" style="fill:#FFC100;stroke:#263238;stroke-linecap:round;stroke-linejoin:round"></path><path d="M290.05,196.22s-4.32-5.22-7.39-4.86-4.68,1.8-5.94,5.59-.54,7.2,2.7,9.19,9.19-.37,11-3.61A6.25,6.25,0,0,0,290.05,196.22Z" style="fill:#FFC100;stroke:#263238;stroke-linecap:round;stroke-linejoin:round"></path><path d="M285,198.46s-2-2.93-1.12-4.14a1.56,1.56,0,0,0-2.06-2.24c-1.73.69-4.74,2.67-4,4s3.44,1.12,3.1,2.32-4.91,2.67-4.22,4.48,3,4,4,3.27,2.16-6,2.85-4.73S283,204,285,204.74s2.76.35,3.79-.51a5.88,5.88,0,0,0,1.55-4.65c-.34-1.21-1.29-1.64-2.58-1.12S285.28,199,285,198.46Z" style="fill:#FFC100;stroke:#263238;stroke-linecap:round;stroke-linejoin:round"></path><path d="M279.6,202.33s-1.64.26-1.12,1.12.6,1.29,2.41-.86,1.81-4.31,2.76-3.62.94,2.76,1.72,3.62,2.07,1.55,2.58,0,.18-1.55-1.29-2.32-3.53-2.42-4-3.54.6-2.92-.35-3.44-4-.6-2.75,1.46,3,2,2.58,3.71S280,202.33,279.6,202.33Z" style="fill:#FFC100;stroke:#263238;stroke-linecap:round;stroke-linejoin:round"></path></g></svg>
